HIERARCHY
ROOT Hips
{
	OFFSET 0.000000 89.005402 0.000000
	CHANNELS 6 Xposition Yposition Zposition Xrotation Yrotation Zrotation
	JOINT Spine
	{
		OFFSET 0.116900 10.681000 0.373400
		CHANNELS 3 Xrotation Yrotation Zrotation
		JOINT Spine1
		{
			OFFSET 0.000000 13.840401 0.053500
			CHANNELS 3 Xrotation Yrotation Zrotation
			JOINT Spine2
			{
				OFFSET 0.000000 14.712700 -0.366200
				CHANNELS 3 Xrotation Yrotation Zrotation
				JOINT Neck
				{
					OFFSET 0.000000 35.415497 -3.314200
					CHANNELS 3 Xrotation Yrotation Zrotation
					JOINT Head
					{
						OFFSET 0.000000 16.899200 1.218300
						CHANNELS 3 Xrotation Yrotation Zrotation
						JOINT HeadTop_End
						{
							OFFSET 0.000000 22.206207 2.192500
							CHANNELS 3 Xrotation Yrotation Zrotation
							End Site
							{
								OFFSET 0.000000 22.314178 0.000000
							}
						}
					}
				}
				JOINT LeftShoulder
				{
					OFFSET 12.896400 26.716293 -4.548400
					CHANNELS 3 Xrotation Yrotation Zrotation
					JOINT LeftArm
					{
						OFFSET 19.027000 -4.857010 -1.718400
						CHANNELS 3 Xrotation Yrotation Zrotation
						JOINT LeftForeArm
						{
							OFFSET 24.179897 0.000000 0.000000
							CHANNELS 3 Xrotation Yrotation Zrotation
							JOINT LeftHand
							{
								OFFSET 27.156403 0.000000 0.000000
								CHANNELS 3 Xrotation Yrotation Zrotation
								JOINT LeftHandIndex1
								{
									OFFSET 16.441200 0.000000 0.000000
									CHANNELS 3 Xrotation Yrotation Zrotation
									JOINT LeftHandIndex2
									{
										OFFSET 4.821899 0.000000 0.000000
										CHANNELS 3 Xrotation Yrotation Zrotation
										JOINT LeftHandIndex3
										{
											OFFSET 6.386497 0.000000 0.000000
											CHANNELS 3 Xrotation Yrotation Zrotation
											JOINT LeftHandIndex4
											{
												OFFSET 5.188988 0.000000 0.000000
												CHANNELS 3 Xrotation Yrotation Zrotation
												End Site
												{
													OFFSET -0.178703 5.185913 0.000177
												}
											}
										}
									}
								}
								JOINT LeftHandThumb1
								{
									OFFSET 6.534897 -5.032593 5.900300
									CHANNELS 3 Xrotation Yrotation Zrotation
									JOINT LeftHandThumb2
									{
										OFFSET 3.818176 -2.204422 2.204423
										CHANNELS 3 Xrotation Yrotation Zrotation
										JOINT LeftHandThumb3
										{
											OFFSET 3.252098 -1.877594 1.877601
											CHANNELS 3 Xrotation Yrotation Zrotation
											JOINT LeftHandThumb4
											{
												OFFSET 5.251778 -3.032120 3.032117
												CHANNELS 3 Xrotation Yrotation Zrotation
												End Site
												{
													OFFSET 0.000023 6.780014 0.000000
												}
											}
										}
									}
								}
							}
						}
					}
				}
				JOINT RightShoulder
				{
					OFFSET -12.896300 26.716293 -4.548400
					CHANNELS 3 Xrotation Yrotation Zrotation
					JOINT RightArm
					{
						OFFSET -19.027000 -4.857010 -1.718400
						CHANNELS 3 Xrotation Yrotation Zrotation
						JOINT RightForeArm
						{
							OFFSET -24.179897 0.000000 0.000000
							CHANNELS 3 Xrotation Yrotation Zrotation
							JOINT RightHand
							{
								OFFSET -27.156403 0.000000 0.000000
								CHANNELS 3 Xrotation Yrotation Zrotation
								JOINT RightHandThumb1
								{
									OFFSET -6.591202 -4.852203 5.988100
									CHANNELS 3 Xrotation Yrotation Zrotation
									JOINT RightHandThumb2
									{
										OFFSET -3.818176 -2.204422 2.204423
										CHANNELS 3 Xrotation Yrotation Zrotation
										JOINT RightHandThumb3
										{
											OFFSET -3.252098 -1.877594 1.877601
											CHANNELS 3 Xrotation Yrotation Zrotation
											JOINT RightHandThumb4
											{
												OFFSET -5.251778 -3.032120 3.032117
												CHANNELS 3 Xrotation Yrotation Zrotation
												End Site
												{
													OFFSET -0.000023 6.780014 0.000000
												}
											}
										}
									}
								}
								JOINT RightHandIndex1
								{
									OFFSET -16.029404 0.000000 0.000000
									CHANNELS 3 Xrotation Yrotation Zrotation
									JOINT RightHandIndex2
									{
										OFFSET -5.213303 0.000000 0.000000
										CHANNELS 3 Xrotation Yrotation Zrotation
										JOINT RightHandIndex3
										{
											OFFSET -6.386528 0.000000 0.000000
											CHANNELS 3 Xrotation Yrotation Zrotation
											JOINT RightHandIndex4
											{
												OFFSET -5.189026 0.000000 0.000000
												CHANNELS 3 Xrotation Yrotation Zrotation
												End Site
												{
													OFFSET 0.236702 5.183624 0.001972
												}
											}
										}
									}
								}
							}
						}
					}
				}
			}
		}
	}
	JOINT LeftUpLeg
	{
		OFFSET 14.073000 -7.904099 -1.463000
		CHANNELS 3 Xrotation Yrotation Zrotation
		JOINT LeftLeg
		{
			OFFSET -0.109806 -34.073280 4.093200
			CHANNELS 3 Xrotation Yrotation Zrotation
			JOINT LeftFoot
			{
				OFFSET 0.109806 -29.899420 -6.319000
				CHANNELS 3 Xrotation Yrotation Zrotation
				JOINT LeftToeBase
				{
					OFFSET 1.551100 -14.988700 20.535801
					CHANNELS 3 Xrotation Yrotation Zrotation
					JOINT LeftToe_End
					{
						OFFSET 0.221200 0.570800 13.248301
						CHANNELS 3 Xrotation Yrotation Zrotation
						End Site
						{
							OFFSET 0.000000 13.262435 0.000000
						}
					}
				}
			}
		}
	}
	JOINT RightUpLeg
	{
		OFFSET -13.839300 -7.904099 -1.463000
		CHANNELS 3 Xrotation Yrotation Zrotation
		JOINT RightLeg
		{
			OFFSET 0.109694 -34.073219 4.093300
			CHANNELS 3 Xrotation Yrotation Zrotation
			JOINT RightFoot
			{
				OFFSET -0.109694 -29.899384 -6.319200
				CHANNELS 3 Xrotation Yrotation Zrotation
				JOINT RightToeBase
				{
					OFFSET -1.551100 -14.988700 20.535801
					CHANNELS 3 Xrotation Yrotation Zrotation
					JOINT RightToe_End
					{
						OFFSET -0.221200 0.570900 13.248299
						CHANNELS 3 Xrotation Yrotation Zrotation
						End Site
						{
							OFFSET 0.000000 13.262440 0.000000
						}
					}
				}
			}
		}
	}
}
MOTION
Frames: 5
Frame Time: 0.033333
0.116627 47.667397 8.636342 -9.446409 -2.598599 1.448744 20.190835 -0.733310 -3.405965 2.261972 -0.106720 -0.382695 2.262173 -0.110119 -0.386537 1.429273 0.480389 0.065620 -17.105632 3.006226 3.682672 0.000000 0.000000 -0.000000 2.036312 -14.622653 -7.206347 -17.847305 -15.807950 -54.576951 -0.000027 -57.110965 -0.000019 25.255374 -2.201337 15.355449 1.270391 6.255414 -55.163893 0.947146 3.195533 -33.011889 0.152189 1.328074 -13.075421 0.000003 0.000001 0.000002 6.704620 -2.646938 1.603637 18.722039 22.579989 -9.756967 3.276427 -1.054681 3.927173 0.000001 -0.000001 0.000001 1.436601 17.431608 11.953607 -22.743502 28.475528 52.409278 0.000007 36.058017 -0.000003 22.154152 27.763488 -6.824027 4.380046 3.395469 -16.864285 30.486157 -13.841299 18.212218 -2.237524 -10.148432 17.332503 0.000000 -0.000000 0.000001 1.162890 -5.380666 49.577758 0.883811 -2.731645 35.852356 0.232932 -1.455867 18.179068 0.000000 0.000001 0.000001 -85.961291 -0.522066 13.643466 86.840569 -8.232921 -5.202253 8.722312 0.284322 2.837335 -0.008481 -0.000000 0.000001 -0.000000 0.000000 0.000000 -87.458120 1.091887 -8.886006 93.630835 -7.740448 2.071735 2.644466 -2.042352 -4.293288 -0.150741 -0.000010 0.000001 -0.000000 -0.000002 -0.000000 
0.126893 47.583672 8.556774 -10.270580 -2.326952 1.378064 20.951952 -0.627621 -3.226665 2.415744 -0.115045 -0.263655 2.415893 -0.127788 -0.263795 1.500581 0.484974 -0.042041 -16.906641 2.824573 3.293468 0.000000 0.000000 0.000000 1.927910 -14.943013 -8.063992 -18.108519 -15.861670 -53.690748 0.000008 -57.264265 0.000002 25.053897 -2.480582 15.742517 1.148656 6.034146 -51.164790 0.853034 3.046006 -31.283253 0.107618 1.118904 -10.987169 -0.000000 0.000001 -0.000000 4.462486 -1.678472 1.425942 18.255919 22.498846 -8.036401 2.895592 -2.026329 5.000686 -0.000002 0.000001 -0.000001 1.382787 17.430991 11.950174 -22.527931 28.494643 51.793745 0.000000 36.702240 0.000013 22.054602 27.172977 -6.692318 3.874330 3.691615 -16.912489 30.066131 -13.859250 17.509694 -2.835857 -9.060453 14.335355 -0.000000 -0.000000 -0.000001 1.010048 -5.209320 47.375794 0.787382 -2.593126 33.776706 0.236458 -1.466554 18.316969 -0.000002 -0.000000 -0.000001 -85.379933 -0.357092 13.557693 86.904424 -8.399825 -5.195512 8.871821 0.282374 3.074208 -0.008478 0.000001 -0.000001 -0.000000 -0.000000 -0.000000 -86.710098 1.206221 -9.044091 93.893504 -7.707944 2.077499 2.504999 -2.179053 -4.112883 -0.150740 -0.000002 0.000004 0.000000 -0.000000 0.000000 
0.136720 47.485329 8.462111 -11.162642 -2.027771 1.308162 21.860495 -0.945786 -2.937883 2.598568 -0.216723 -0.266533 2.598277 -0.226990 -0.262394 1.597297 0.543138 -0.142845 -16.954063 3.256100 3.151874 -0.000000 0.000000 0.000000 1.914318 -14.555633 -8.294340 -18.232242 -16.023619 -53.166503 0.000030 -57.864721 0.000047 24.647388 -2.485755 16.449877 0.986944 5.747058 -46.396382 0.749081 2.868179 -29.268228 0.066156 0.878703 -8.607736 0.000000 -0.000001 0.000000 2.160971 -0.719435 1.261950 17.796968 22.415626 -6.313120 2.542687 -3.048742 6.070401 0.000000 -0.000001 -0.000001 1.251071 17.817896 12.292149 -22.652205 28.447338 51.224469 -0.000012 37.318265 0.000006 22.305306 26.676142 -6.339856 3.330486 4.011977 -16.957471 29.514586 -13.701168 16.704722 -3.354670 -7.929816 11.215594 0.000000 -0.000001 -0.000001 0.807650 -4.965463 44.781182 0.676761 -2.419709 31.247166 0.240264 -1.477984 18.465135 -0.000001 0.000001 0.000002 -84.760947 -0.182337 13.463203 86.963560 -8.541023 -5.191600 9.060066 0.242953 3.336540 -0.008478 0.000001 -0.000001 0.000000 -0.000000 0.000000 -85.909505 1.327026 -9.216453 94.171677 -7.672637 2.083705 2.370175 -2.332323 -3.921930 -0.150730 -0.000017 0.000002 -0.000000 -0.000000 -0.000000 
0.145985 47.375214 8.357210 -12.095645 -1.705116 1.243049 22.911820 -0.691223 -2.724170 2.769330 -0.188714 -0.147502 2.768976 -0.208612 -0.140752 1.695817 0.514369 -0.182941 -17.192920 3.113822 2.479530 -0.000000 0.000000 -0.000000 1.792440 -15.004913 -8.980485 -18.359663 -16.123481 -52.241405 -0.000019 -58.473523 -0.000014 24.553477 -2.577739 17.042522 0.814646 5.417453 -41.187089 0.643731 2.671762 -27.088843 0.032822 0.619943 -6.060929 -0.000000 0.000001 0.000001 -0.179978 0.219880 1.117454 17.346498 22.330038 -4.589071 2.224693 -4.106697 7.135529 0.000002 0.000001 0.000001 1.291299 17.326085 11.783910 -22.870386 28.454022 51.313360 -0.000016 38.116591 0.000024 22.425910 26.025599 -6.333953 2.753922 4.353560 -16.997419 28.871216 -13.437514 15.827285 -3.781103 -6.771880 7.990501 0.000000 -0.000000 0.000000 0.585143 -4.664045 41.915826 0.562026 -2.219770 28.413035 0.244300 -1.490099 18.622080 0.000000 -0.000001 0.000001 -84.123198 -0.000773 13.360810 87.016870 -8.659724 -5.187054 9.280511 0.172355 3.614644 -0.008474 -0.000001 0.000000 -0.000000 0.000000 0.000000 -85.078305 1.453921 -9.400852 94.460710 -7.634753 2.090354 2.239901 -2.496922 -3.721706 -0.150734 -0.000000 -0.000001 -0.000000 0.000002 -0.000000 
0.155370 47.257401 8.239965 -13.037803 -1.362163 1.166076 24.118496 -0.725626 -2.417034 2.966800 -0.229607 -0.093034 2.966139 -0.252401 -0.082531 1.802522 0.520818 -0.230097 -17.733130 3.444429 1.765407 -0.000000 0.000000 -0.000000 1.712399 -15.096040 -9.417577 -17.903591 -16.579130 -50.937833 -0.000029 -59.557931 -0.000025 24.015481 -2.283526 18.175769 0.655050 5.072636 -35.864367 0.544111 2.467506 -24.866987 0.010760 0.355434 -3.470478 0.000001 0.000001 -0.000001 -2.540177 1.129717 0.997157 16.905801 22.242050 -2.866218 1.947182 -5.184289 8.195765 0.000002 0.000000 -0.000000 1.252875 17.175901 11.647618 -22.660807 28.726970 50.725479 0.000011 39.379988 -0.000019 22.283361 25.150237 -6.277633 2.150058 4.713274 -17.030652 28.175432 -13.139440 14.905348 -4.105642 -5.603231 4.676835 -0.000000 -0.000000 0.000001 0.368576 -4.324333 38.900980 0.451848 -2.002931 25.423357 0.248603 -1.502748 18.786217 -0.000001 -0.000000 -0.000001 -83.499691 0.173990 13.259696 87.055754 -8.764205 -5.182115 9.542489 0.077091 3.911197 -0.008477 0.000003 0.000000 0.000000 0.000000 0.000000 -84.235166 1.570720 -9.581066 94.735776 -7.595111 2.097330 2.127160 -2.682505 -3.508016 -0.150737 -0.000005 0.000001 0.000000 -0.000002 -0.000000 
